<svg width="24" height="24" viewBox="0 0 24 24" fill="none" xmlns="http://www.w3.org/2000/svg">
<path fill-rule="evenodd" clip-rule="evenodd" d="M1.19995 11.5992C1.19995 5.89922 6.09995 1.19922 12 1.19922C17.9 1.19922 22.7999 5.89922 22.7999 11.5992C22.7999 17.2992 17.9 21.8992 12 21.8992C11.3 21.8992 10.6 21.7992 9.89995 21.6992C9.59995 21.5992 9.39995 21.5992 9.29995 21.5992C9.25421 21.5992 9.18754 21.6411 9.09995 21.6961C8.99606 21.7613 8.86272 21.845 8.69995 21.8992C7.69995 22.4992 6.49995 22.7992 5.29995 22.7992H5.29993C4.89993 22.7992 4.39994 22.7992 3.99995 22.6992C3.69995 22.5992 3.49995 22.3992 3.39995 22.1992C3.29995 21.9992 3.29995 21.6992 3.49995 21.4992C3.89995 20.8992 4.29995 20.1992 4.39995 19.4992C4.49995 19.1992 4.29995 18.8992 4.09995 18.6992C2.19995 16.7992 1.19995 14.1992 1.19995 11.5992ZM10.2 20.1992C10.8 20.2992 11.4 20.3992 12 20.3992C17.1 20.3992 21.1 16.3992 21.1 11.5992C21.1 6.79922 17 2.79922 11.9 2.79922C6.79995 2.79922 2.69995 6.69922 2.69995 11.5992C2.69995 13.7992 3.59995 15.9992 5.19995 17.5992C5.79995 18.1992 5.99995 18.9992 5.89995 19.6992C5.79995 20.2992 5.59995 20.7992 5.39995 21.2992C6.29995 21.2992 7.19995 20.9992 7.99995 20.5992C8.19993 20.4992 8.35548 20.4103 8.4851 20.3363L8.48514 20.3363C8.7444 20.1881 8.89995 20.0992 9.09995 20.0992C9.34681 20.0169 9.59368 20.0701 9.95198 20.1472C10.0291 20.1638 10.1114 20.1815 10.2 20.1992ZM6.99994 11.9992C6.99994 11.3992 7.39994 10.9992 7.99994 10.9992C8.59994 10.9992 8.99994 11.3992 8.99994 11.9992C8.99994 12.5992 8.49994 12.9992 7.99994 12.9992C7.49994 12.9992 6.99994 12.5992 6.99994 11.9992ZM11.9999 10.9992C11.3999 10.9992 10.9999 11.3992 10.9999 11.9992C10.9999 12.5992 11.4999 12.9992 11.9999 12.9992C12.4999 12.9992 12.9999 12.5992 12.9999 11.9992C12.9999 11.3992 12.5999 10.9992 11.9999 10.9992ZM14.9999 11.9992C14.9999 11.3992 15.3999 10.9992 15.9999 10.9992C16.5999 10.9992 16.9999 11.3992 16.9999 11.9992C16.9999 12.5992 16.4999 12.9992 15.9999 12.9992C15.4999 12.9992 14.9999 12.5992 14.9999 11.9992Z" fill="#0D3D4B"/>
</svg>
