<svg width="24" height="24" viewBox="0 0 24 24" fill="none" xmlns="http://www.w3.org/2000/svg">
<path d="M20.6 3.40078C19 1.80078 16.6 1.80078 12 1.80078C7.30005 1.80078 5.00005 1.80078 3.40005 3.40078C1.80005 5.00078 1.80005 7.30078 1.80005 12.0008C1.80005 16.7008 1.80005 19.0008 3.40005 20.6008C5.00005 22.2008 7.40005 22.2008 12 22.2008C16.7 22.2008 19 22.2008 20.6 20.6008C22.2001 19.0008 22.2001 16.6008 22.2001 12.0008C22.2001 7.30078 22.2001 5.00078 20.6 3.40078ZM4.40005 4.40078C5.60005 3.20078 7.70005 3.20078 12 3.20078C16.3 3.20078 18.4 3.20078 19.6 4.40078C20.8001 5.60078 20.8 7.70078 20.8 12.0008C20.8 12.3008 20.8 12.5008 20.8 12.8008H16.6C15.6 12.8008 14.6 13.5008 14.1 14.7008C13.7 15.5008 13 15.8008 12.1 15.8008C11.1 15.8008 10.4 15.4008 10.1 14.7008C9.50005 13.5008 8.60005 12.8008 7.60005 12.8008H3.30005C3.30005 12.6008 3.30005 12.3008 3.30005 12.0008C3.20005 7.70078 3.20005 5.60078 4.40005 4.40078ZM19.6 19.6008C18.4 20.8008 16.3 20.8008 12 20.8008C7.70005 20.8008 5.60005 20.8008 4.40005 19.6008C3.50005 18.7008 3.30005 17.1008 3.20005 14.3008H7.40005C7.90005 14.3008 8.40005 14.8008 8.60005 15.3008C9.20005 16.6008 10.4 17.3008 12 17.3008C13.5 17.3008 14.7 16.6008 15.4 15.3008C15.6 14.8008 16.1 14.3008 16.6 14.3008H20.8C20.7 17.0008 20.5 18.6008 19.6 19.6008Z" fill="#0D3D4B"/>
</svg>
