<svg width="24" height="24" viewBox="0 0 24 24" fill="none" xmlns="http://www.w3.org/2000/svg">
<path d="M22.8 8.00078V7.90078C22.8 7.80078 22.8 7.80078 22.8 7.70078L21.8 5.40078C21 3.50078 20.6 2.50078 19.6 1.90078C18.7001 1.30078 17.5 1.30078 15.5 1.30078H8.50005C6.50005 1.30078 5.40005 1.30078 4.40005 1.90078C3.50005 2.50078 3.00005 3.50078 2.30005 5.40078L1.30005 7.70078C1.30005 7.80078 1.30005 7.80078 1.30005 7.90078V8.00078V13.4008C1.30005 17.6008 1.30005 19.8008 2.80005 21.3008C4.30005 22.8008 6.50005 22.8008 10.9 22.8008H13.1C17.5 22.8008 19.7001 22.8008 21.2001 21.3008C22.7001 19.8008 22.7001 17.7008 22.7001 13.4008V8.00078C22.8001 8.00078 22.8 8.00078 22.8 8.00078ZM18.7001 3.10078C19.2001 3.50078 19.6 4.20078 20.3 6.00078L20.8 7.30078H12.7V2.80078H15.5C17.3 2.80078 18.2001 2.80078 18.7001 3.10078ZM5.30005 3.10078C5.90005 2.70078 6.80005 2.70078 8.50005 2.70078H11.3V7.20078H3.10005L3.70005 6.00078C4.40005 4.20078 4.70005 3.50078 5.30005 3.10078ZM21.2001 13.4008C21.2001 17.2008 21.2001 19.1008 20.1 20.2008C19 21.2008 17 21.2008 13 21.2008H10.8C6.80005 21.2008 4.80005 21.2008 3.70005 20.2008C2.60005 19.2008 2.60005 17.2008 2.60005 13.4008V8.80078H21.1V13.4008H21.2001Z" fill="#0D3D4B"/>
<path d="M9.20007 12.0012C9.20007 12.4012 9.50007 12.8012 10.0001 12.8012H14.0001C14.4001 12.8012 14.8001 12.5012 14.8001 12.0012C14.8001 11.5012 14.5001 11.2012 14.0001 11.2012H10.0001C9.60007 11.2012 9.20007 11.6012 9.20007 12.0012Z" fill="#141B34"/>
</svg>
