<svg width="20" height="20" viewBox="0 0 20 20" fill="none" xmlns="http://www.w3.org/2000/svg">
  <path d="M16.25 4.58398L15.7336 12.9382C15.6016 15.0727 15.5357 16.1399 15.0007 16.9072C14.7361 17.2866 14.3956 17.6067 14.0006 17.8473C13.2017 18.334 12.1325 18.334 9.99392 18.334C7.8526 18.334 6.78192 18.334 5.98254 17.8464C5.58733 17.6054 5.24667 17.2847 4.98223 16.9047C4.4474 16.1362 4.38287 15.0674 4.25384 12.93L3.75 4.58398" stroke="#64748B" stroke-width="1.5" stroke-linecap="round"/>
  <path d="M17.5 4.58398H2.5" stroke="#64748B" stroke-width="1.5" stroke-linecap="round"/>
  <path d="M7.5 9.7793H12.5" stroke="#64748B" stroke-width="1.5" stroke-linecap="round"/>
  <path d="M13.3814 4.58268L12.8125 3.40912C12.4346 2.62957 12.2457 2.23978 11.9197 1.99669C11.8474 1.94277 11.7709 1.8948 11.6908 1.85327C11.3299 1.66602 10.8967 1.66602 10.0304 1.66602C9.14233 1.66602 8.69824 1.66602 8.33137 1.86112C8.25004 1.90436 8.17245 1.95427 8.09938 2.01032C7.76966 2.26327 7.58549 2.66731 7.21714 3.4754L6.7124 4.58268" stroke="#64748B" stroke-width="1.5" stroke-linecap="round"/>
  <path d="M8.75 13.0449H11.25" stroke="#64748B" stroke-width="1.5" stroke-linecap="round"/>
</svg>