<svg xmlns="http://www.w3.org/2000/svg" width="72" height="72" viewBox="0 0 72 72" fill="none">
<path d="M53 19H13V46L52 47L53 19Z" fill="#CFF6EF"/>
<path fill-rule="evenodd" clip-rule="evenodd" d="M9.75 18C9.75 16.7574 10.7574 15.75 12 15.75H54C55.2426 15.75 56.25 16.7574 56.25 18V29.7999C56.2501 33.987 56.2501 37.361 55.8876 40.0143C55.5109 42.7713 54.7054 45.0829 52.8445 46.914C50.9886 48.7401 48.6543 49.526 45.8697 49.8943C43.1804 50.2501 39.7578 50.2501 35.4964 50.25H30.5036C26.2423 50.2501 22.8197 50.2501 20.1304 49.8943C17.3459 49.526 15.0115 48.7401 13.1556 46.914C11.2946 45.0829 10.4891 42.7713 10.1124 40.0143C9.74989 37.361 9.74994 33.987 9.75 29.7999L9.75 18ZM14.25 20.25V29.6327C14.25 34.0265 14.2549 37.0919 14.571 39.4051C14.8777 41.6497 15.439 42.8477 16.3117 43.7064C17.1895 44.5701 18.4219 45.1291 20.7205 45.4332C23.0802 45.7454 26.2043 45.75 30.6666 45.75H35.3334C39.7958 45.75 42.9199 45.7454 45.2796 45.4332C47.5782 45.1291 48.8106 44.5701 49.6883 43.7064C50.561 42.8477 51.1223 41.6497 51.429 39.4051C51.7451 37.0919 51.75 34.0265 51.75 29.6327V20.25H14.25Z" fill="#124E58"/>
<path fill-rule="evenodd" clip-rule="evenodd" d="M21.1024 8.364C20.0777 8.47011 19.5523 8.65871 19.161 8.90718C18.7772 9.15084 18.4091 9.52346 17.9271 10.3575C17.4147 11.2442 16.8833 12.4509 16.0802 14.2865L14.0609 18.9019C13.5629 20.0403 12.2362 20.5594 11.0977 20.0614C9.95929 19.5633 9.44016 18.2366 9.93824 17.0982L11.9575 12.4828C11.9735 12.4462 11.9895 12.4096 12.0054 12.3732C12.7474 10.6769 13.3775 9.23666 14.0309 8.106C14.7287 6.89837 15.5456 5.87227 16.749 5.10823C17.9447 4.349 19.2309 4.03375 20.6388 3.88794C21.9716 3.74991 23.5968 3.74995 25.5357 3.75H40.4635C42.4023 3.74995 44.0275 3.74991 45.3603 3.88794C46.7683 4.03375 48.0544 4.349 49.2502 5.10817C50.4535 5.87222 51.2705 6.89843 51.9683 8.10604C52.6216 9.23665 53.2516 10.6769 53.9936 12.3731L54.0416 12.4828L56.0609 17.0981C56.559 18.2366 56.0399 19.5633 54.9015 20.0613C53.763 20.5594 52.4363 20.0403 51.9383 18.9019L49.919 14.2865C49.1159 12.4509 48.5844 11.2442 48.072 10.3575C47.5901 9.52352 47.222 9.15089 46.8384 8.90724M21.1024 8.364C22.1761 8.2528 23.5671 8.25 25.6496 8.25L21.1024 8.364ZM44.8968 8.364C43.823 8.2528 42.432 8.25 40.3496 8.25H25.6496M44.8968 8.364C45.9213 8.4701 46.4469 8.65876 46.8384 8.90724L44.8968 8.364Z" fill="#124E58"/>
<path fill-rule="evenodd" clip-rule="evenodd" d="M26.25 27C26.25 25.7574 27.2574 24.75 28.5 24.75H37.5C38.7426 24.75 39.75 25.7574 39.75 27C39.75 28.2426 38.7426 29.25 37.5 29.25H28.5C27.2574 29.25 26.25 28.2426 26.25 27Z" fill="#124E58"/>
<path fill-rule="evenodd" clip-rule="evenodd" d="M6.75 48C6.75 46.7574 7.75736 45.75 9 45.75H54C60.2133 45.75 65.25 50.7867 65.25 57C65.25 63.2133 60.2133 68.25 54 68.25H9C7.75736 68.25 6.75 67.2426 6.75 66C6.75 64.7574 7.75736 63.75 9 63.75H54C57.7281 63.75 60.75 60.7281 60.75 57C60.75 53.2719 57.7281 50.25 54 50.25H9C7.75736 50.25 6.75 49.2426 6.75 48Z" fill="#124E58"/>
<path fill-rule="evenodd" clip-rule="evenodd" d="M12 57C12 55.3431 13.3431 54 15 54H15.0269C16.6838 54 18.0269 55.3431 18.0269 57C18.0269 58.6569 16.6838 60 15.0269 60H15C13.3431 60 12 58.6569 12 57ZM30 57C30 55.3431 31.3431 54 33 54H33.027C34.6839 54 36.027 55.3431 36.027 57C36.027 58.6569 34.6839 60 33.027 60H33C31.3431 60 30 58.6569 30 57ZM48 57C48 55.3431 49.3431 54 51 54H51.027C52.6839 54 54.027 55.3431 54.027 57C54.027 58.6569 52.6839 60 51.027 60H51C49.3431 60 48 58.6569 48 57Z" fill="#124E58"/>
</svg>