<svg width="24" height="24" viewBox="0 0 24 24" fill="none" xmlns="http://www.w3.org/2000/svg">
<path d="M13.5 21.8004H5.99996C4.59996 21.8004 3.39996 21.2004 2.09996 20.0004C1.49996 19.4004 1.19996 18.7004 1.29996 18.0004C1.49996 16.6004 3.19996 15.6004 4.29996 14.9004C4.39996 14.8004 4.59996 14.7004 4.69996 14.7004C7.79996 12.8004 11.7 12.8004 14.8 14.7004C14.9 14.8004 15.1 14.8004 15.2 14.9004C16.3 15.6004 18 16.5004 18.2 18.0004C18.3 18.7004 18 19.4004 17.4 20.0004C16.6 20.7004 15.3 21.8004 13.5 21.8004ZM9.79996 14.8004C8.29996 14.8004 6.79996 15.2004 5.49996 16.0004C5.29996 16.0004 5.19996 16.1004 4.99996 16.2004C4.19996 16.6004 2.79996 17.5004 2.69996 18.2004C2.69996 18.4004 2.79996 18.7004 3.09996 18.9004C4.09996 19.8004 4.89996 20.3004 5.89996 20.3004H13.5C14.5 20.3004 15.3 19.9004 16.3 18.9004C16.6 18.6004 16.7 18.4004 16.7 18.2004C16.6 17.5004 15.2 16.7004 14.4 16.2004C14.2 16.1004 14.1 16.0004 14 16.0004C12.7 15.2004 11.2 14.8004 9.79996 14.8004Z" fill="#0D3D4B"/>
<path d="M9.49995 11.7992C6.89995 11.7992 4.69995 9.69922 4.69995 6.99922C4.69995 4.29922 6.79995 2.19922 9.49995 2.19922C12.2 2.19922 14.3 4.29922 14.3 6.99922C14.3 9.69922 12.1 11.7992 9.49995 11.7992ZM9.49995 3.79922C7.69995 3.79922 6.19995 5.19922 6.19995 6.99922C6.19995 8.79922 7.69995 10.1992 9.39995 10.1992C11.1 10.1992 12.6 8.69922 12.6 6.99922C12.6 5.29922 11.3 3.79922 9.49995 3.79922Z" fill="#0D3D4B"/>
<path d="M22 5.79922H17C16.6 5.79922 16.2 5.49922 16.2 4.99922C16.2 4.49922 16.5 4.19922 17 4.19922H22C22.4 4.19922 22.7999 4.49922 22.7999 4.99922C22.7999 5.49922 22.4 5.79922 22 5.79922Z" fill="#0D3D4B"/>
<path d="M22 8.79922H17C16.6 8.79922 16.2 8.49922 16.2 7.99922C16.2 7.49922 16.5 7.19922 17 7.19922H22C22.4 7.19922 22.7999 7.49922 22.7999 7.99922C22.7999 8.49922 22.4 8.79922 22 8.79922Z" fill="#0D3D4B"/>
<path d="M22 11.7992H20C19.6 11.7992 19.2 11.4992 19.2 10.9992C19.2 10.4992 19.5 10.1992 20 10.1992H22C22.4 10.1992 22.7999 10.4992 22.7999 10.9992C22.7999 11.4992 22.4 11.7992 22 11.7992Z" fill="#0D3D4B"/>
</svg>
